<svg width="147" height="26" viewBox="0 0 147 26" fill="none" xmlns="http://www.w3.org/2000/svg">
<path d="M13.5 0L16.4187 8.98278H25.8637L18.2225 14.5344L21.1412 23.5172L13.5 17.9656L5.85879 23.5172L8.77747 14.5344L1.13627 8.98278H10.5813L13.5 0Z" fill="#FFCB44"/>
<path d="M43.5 0L46.4187 8.98278H55.8637L48.2225 14.5344L51.1412 23.5172L43.5 17.9656L35.8588 23.5172L38.7775 14.5344L31.1363 8.98278H40.5813L43.5 0Z" fill="#FFCB44"/>
<path d="M73.5 0L76.4187 8.98278H85.8637L78.2225 14.5344L81.1412 23.5172L73.5 17.9656L65.8588 23.5172L68.7775 14.5344L61.1363 8.98278H70.5813L73.5 0Z" fill="#FFCB44"/>
<path d="M103.5 0L106.419 8.98278H115.864L108.223 14.5344L111.141 23.5172L103.5 17.9656L95.8588 23.5172L98.7775 14.5344L91.1363 8.98278H100.581L103.5 0Z" fill="black"/>
<path d="M133.5 0L136.419 8.98278H145.864L138.223 14.5344L141.141 23.5172L133.5 17.9656L125.859 23.5172L128.777 14.5344L121.136 8.98278H130.581L133.5 0Z" fill="black"/>
</svg>
